STARTFONT 2.1
FONT -Sun-Screen-Medium-R-Normal--14-140-72-72-M-80-ISO8859-1
SIZE 14 72 72
FONTBOUNDINGBOX 8 16 0 -5

STARTPROPERTIES 21
FONTNAME_REGISTRY ""
FOUNDRY "Sun"
FAMILY_NAME "Screen"
WEIGHT_NAME "Medium"
SLANT "R"
SETWIDTH_NAME "Normal"
ADD_STYLE_NAME ""
PIXEL_SIZE 14
POINT_SIZE 140
RESOLUTION_X 72
RESOLUTION_Y 72
SPACING "M"
AVERAGE_WIDTH 80
CHARSET_REGISTRY "ISO8859"
CHARSET_ENCODING "1"
WEIGHT 10
X_HEIGHT -1
QUAD_WIDTH 8
DEFAULT_CHAR 32
FONT_DESCENT 5
FONT_ASCENT 11
ENDPROPERTIES

CHARS 191

STARTCHAR <unknown>
ENCODING 32
SWIDTH 42 0
DWIDTH 8 0
BBX 8 16 0 -5
BITMAP
00
00
00
00
00
00
00
00
00
00
00
00
00
00
00
00
ENDCHAR

STARTCHAR <unknown>
ENCODING 33
SWIDTH 42 0
DWIDTH 8 0
BBX 8 16 0 -5
BITMAP
00
00
10
10
10
10
10
10
10
00
00
10
00
00
00
00
ENDCHAR

STARTCHAR <unknown>
ENCODING 34
SWIDTH 42 0
DWIDTH 8 0
BBX 8 16 0 -5
BITMAP
00
00
24
24
24
24
00
00
00
00
00
00
00
00
00
00
ENDCHAR

STARTCHAR <unknown>
ENCODING 35
SWIDTH 42 0
DWIDTH 8 0
BBX 8 16 0 -5
BITMAP
00
00
12
12
12
7F
24
24
FE
48
48
48
00
00
00
00
ENDCHAR

STARTCHAR <unknown>
ENCODING 36
SWIDTH 42 0
DWIDTH 8 0
BBX 8 16 0 -5
BITMAP
00
10
38
54
54
50
30
18
14
54
54
38
10
00
00
00
ENDCHAR

STARTCHAR <unknown>
ENCODING 37
SWIDTH 42 0
DWIDTH 8 0
BBX 8 16 0 -5
BITMAP
00
00
64
94
98
68
10
10
2C
32
52
4C
00
00
00
00
ENDCHAR

STARTCHAR <unknown>
ENCODING 38
SWIDTH 42 0
DWIDTH 8 0
BBX 8 16 0 -5
BITMAP
00
00
30
48
48
30
20
52
8C
88
98
66
00
00
00
00
ENDCHAR

STARTCHAR <unknown>
ENCODING 39
SWIDTH 42 0
DWIDTH 8 0
BBX 8 16 0 -5
BITMAP
00
00
08
08
10
20
00
00
00
00
00
00
00
00
00
00
ENDCHAR

STARTCHAR <unknown>
ENCODING 40
SWIDTH 42 0
DWIDTH 8 0
BBX 8 16 0 -5
BITMAP
00
04
08
10
10
20
20
20
20
20
10
10
08
04
00
00
ENDCHAR

STARTCHAR <unknown>
ENCODING 41
SWIDTH 42 0
DWIDTH 8 0
BBX 8 16 0 -5
BITMAP
00
20
10
08
08
04
04
04
04
04
08
08
10
20
00
00
ENDCHAR

STARTCHAR <unknown>
ENCODING 42
SWIDTH 42 0
DWIDTH 8 0
BBX 8 16 0 -5
BITMAP
00
00
00
10
54
38
38
54
10
00
00
00
00
00
00
00
ENDCHAR

STARTCHAR <unknown>
ENCODING 43
SWIDTH 42 0
DWIDTH 8 0
BBX 8 16 0 -5
BITMAP
00
00
00
00
10
10
10
FE
10
10
10
00
00
00
00
00
ENDCHAR

STARTCHAR <unknown>
ENCODING 44
SWIDTH 42 0
DWIDTH 8 0
BBX 8 16 0 -5
BITMAP
00
00
00
00
00
00
00
00
00
00
18
18
08
10
20
00
ENDCHAR

STARTCHAR <unknown>
ENCODING 45
SWIDTH 42 0
DWIDTH 8 0
BBX 8 16 0 -5
BITMAP
00
00
00
00
00
00
00
7E
00
00
00
00
00
00
00
00
ENDCHAR

STARTCHAR <unknown>
ENCODING 46
SWIDTH 42 0
DWIDTH 8 0
BBX 8 16 0 -5
BITMAP
00
00
00
00
00
00
00
00
00
00
18
18
00
00
00
00
ENDCHAR

STARTCHAR <unknown>
ENCODING 47
SWIDTH 42 0
DWIDTH 8 0
BBX 8 16 0 -5
BITMAP
00
02
04
04
08
08
10
10
20
20
40
40
80
00
00
00
ENDCHAR

STARTCHAR <unknown>
ENCODING 48
SWIDTH 42 0
DWIDTH 8 0
BBX 8 16 0 -5
BITMAP
00
00
1C
22
22
22
22
22
22
22
22
1C
00
00
00
00
ENDCHAR

STARTCHAR <unknown>
ENCODING 49
SWIDTH 42 0
DWIDTH 8 0
BBX 8 16 0 -5
BITMAP
00
00
08
18
28
08
08
08
08
08
08
3E
00
00
00
00
ENDCHAR

STARTCHAR <unknown>
ENCODING 50
SWIDTH 42 0
DWIDTH 8 0
BBX 8 16 0 -5
BITMAP
00
00
3C
42
42
02
04
08
10
20
40
7E
00
00
00
00
ENDCHAR

STARTCHAR <unknown>
ENCODING 51
SWIDTH 42 0
DWIDTH 8 0
BBX 8 16 0 -5
BITMAP
00
00
3C
42
42
02
1C
02
02
42
42
3C
00
00
00
00
ENDCHAR

STARTCHAR <unknown>
ENCODING 52
SWIDTH 42 0
DWIDTH 8 0
BBX 8 16 0 -5
BITMAP
00
00
04
0C
14
24
44
84
FE
04
04
04
00
00
00
00
ENDCHAR

STARTCHAR <unknown>
ENCODING 53
SWIDTH 42 0
DWIDTH 8 0
BBX 8 16 0 -5
BITMAP
00
00
7E
40
40
40
7C
02
02
42
42
3C
00
00
00
00
ENDCHAR

STARTCHAR <unknown>
ENCODING 54
SWIDTH 42 0
DWIDTH 8 0
BBX 8 16 0 -5
BITMAP
00
00
3C
42
40
40
7C
42
42
42
42
3C
00
00
00
00
ENDCHAR

STARTCHAR <unknown>
ENCODING 55
SWIDTH 42 0
DWIDTH 8 0
BBX 8 16 0 -5
BITMAP
00
00
7E
42
02
04
04
08
08
10
10
10
00
00
00
00
ENDCHAR

STARTCHAR <unknown>
ENCODING 56
SWIDTH 42 0
DWIDTH 8 0
BBX 8 16 0 -5
BITMAP
00
00
3C
42
42
42
3C
42
42
42
42
3C
00
00
00
00
ENDCHAR

STARTCHAR <unknown>
ENCODING 57
SWIDTH 42 0
DWIDTH 8 0
BBX 8 16 0 -5
BITMAP
00
00
3C
42
42
42
42
3E
02
02
42
3C
00
00
00
00
ENDCHAR

STARTCHAR <unknown>
ENCODING 58
SWIDTH 42 0
DWIDTH 8 0
BBX 8 16 0 -5
BITMAP
00
00
00
00
00
18
18
00
00
00
18
18
00
00
00
00
ENDCHAR

STARTCHAR <unknown>
ENCODING 59
SWIDTH 42 0
DWIDTH 8 0
BBX 8 16 0 -5
BITMAP
00
00
00
00
00
18
18
00
00
00
18
18
08
10
20
00
ENDCHAR

STARTCHAR <unknown>
ENCODING 60
SWIDTH 42 0
DWIDTH 8 0
BBX 8 16 0 -5
BITMAP
00
02
04
08
10
20
40
20
10
08
04
02
00
00
00
00
ENDCHAR

STARTCHAR <unknown>
ENCODING 61
SWIDTH 42 0
DWIDTH 8 0
BBX 8 16 0 -5
BITMAP
00
00
00
00
00
7E
00
00
00
7E
00
00
00
00
00
00
ENDCHAR

STARTCHAR <unknown>
ENCODING 62
SWIDTH 42 0
DWIDTH 8 0
BBX 8 16 0 -5
BITMAP
00
40
20
10
08
04
02
04
08
10
20
40
00
00
00
00
ENDCHAR

STARTCHAR <unknown>
ENCODING 63
SWIDTH 42 0
DWIDTH 8 0
BBX 8 16 0 -5
BITMAP
00
00
3C
42
42
02
04
08
08
00
00
08
00
00
00
00
ENDCHAR

STARTCHAR <unknown>
ENCODING 64
SWIDTH 42 0
DWIDTH 8 0
BBX 8 16 0 -5
BITMAP
00
00
18
24
42
4E
52
52
4C
40
22
1C
00
00
00
00
ENDCHAR

STARTCHAR <unknown>
ENCODING 65
SWIDTH 42 0
DWIDTH 8 0
BBX 8 16 0 -5
BITMAP
00
00
18
18
18
24
24
24
42
7E
42
42
00
00
00
00
ENDCHAR

STARTCHAR <unknown>
ENCODING 66
SWIDTH 42 0
DWIDTH 8 0
BBX 8 16 0 -5
BITMAP
00
00
78
44
44
44
78
44
42
42
42
7C
00
00
00
00
ENDCHAR

STARTCHAR <unknown>
ENCODING 67
SWIDTH 42 0
DWIDTH 8 0
BBX 8 16 0 -5
BITMAP
00
00
3C
42
42
40
40
40
40
42
42
3C
00
00
00
00
ENDCHAR

STARTCHAR <unknown>
ENCODING 68
SWIDTH 42 0
DWIDTH 8 0
BBX 8 16 0 -5
BITMAP
00
00
78
44
42
42
42
42
42
42
44
78
00
00
00
00
ENDCHAR

STARTCHAR <unknown>
ENCODING 69
SWIDTH 42 0
DWIDTH 8 0
BBX 8 16 0 -5
BITMAP
00
00
7E
40
40
40
7C
40
40
40
40
7E
00
00
00
00
ENDCHAR

STARTCHAR <unknown>
ENCODING 70
SWIDTH 42 0
DWIDTH 8 0
BBX 8 16 0 -5
BITMAP
00
00
7E
40
40
40
7C
40
40
40
40
40
00
00
00
00
ENDCHAR

STARTCHAR <unknown>
ENCODING 71
SWIDTH 42 0
DWIDTH 8 0
BBX 8 16 0 -5
BITMAP
00
00
3C
42
42
40
40
4E
42
42
46
3A
00
00
00
00
ENDCHAR

STARTCHAR <unknown>
ENCODING 72
SWIDTH 42 0
DWIDTH 8 0
BBX 8 16 0 -5
BITMAP
00
00
42
42
42
42
7E
42
42
42
42
42
00
00
00
00
ENDCHAR

STARTCHAR <unknown>
ENCODING 73
SWIDTH 42 0
DWIDTH 8 0
BBX 8 16 0 -5
BITMAP
00
00
7C
10
10
10
10
10
10
10
10
7C
00
00
00
00
ENDCHAR

STARTCHAR <unknown>
ENCODING 74
SWIDTH 42 0
DWIDTH 8 0
BBX 8 16 0 -5
BITMAP
00
00
1E
04
04
04
04
04
04
44
44
38
00
00
00
00
ENDCHAR

STARTCHAR <unknown>
ENCODING 75
SWIDTH 42 0
DWIDTH 8 0
BBX 8 16 0 -5
BITMAP
00
00
42
44
48
50
60
70
58
4C
46
42
00
00
00
00
ENDCHAR

STARTCHAR <unknown>
ENCODING 76
SWIDTH 42 0
DWIDTH 8 0
BBX 8 16 0 -5
BITMAP
00
00
40
40
40
40
40
40
40
40
40
7E
00
00
00
00
ENDCHAR

STARTCHAR <unknown>
ENCODING 77
SWIDTH 42 0
DWIDTH 8 0
BBX 8 16 0 -5
BITMAP
00
00
82
82
C6
C6
AA
AA
92
92
82
82
00
00
00
00
ENDCHAR

STARTCHAR <unknown>
ENCODING 78
SWIDTH 42 0
DWIDTH 8 0
BBX 8 16 0 -5
BITMAP
00
00
42
62
62
52
52
4A
4A
46
46
42
00
00
00
00
ENDCHAR

STARTCHAR <unknown>
ENCODING 79
SWIDTH 42 0
DWIDTH 8 0
BBX 8 16 0 -5
BITMAP
00
00
3C
42
42
42
42
42
42
42
42
3C
00
00
00
00
ENDCHAR

STARTCHAR <unknown>
ENCODING 80
SWIDTH 42 0
DWIDTH 8 0
BBX 8 16 0 -5
BITMAP
00
00
7C
42
42
42
42
7C
40
40
40
40
00
00
00
00
ENDCHAR

STARTCHAR <unknown>
ENCODING 81
SWIDTH 42 0
DWIDTH 8 0
BBX 8 16 0 -5
BITMAP
00
00
3C
42
42
42
42
42
42
42
42
3C
10
08
06
00
ENDCHAR

STARTCHAR <unknown>
ENCODING 82
SWIDTH 42 0
DWIDTH 8 0
BBX 8 16 0 -5
BITMAP
00
00
7C
42
42
42
7C
48
44
44
42
42
00
00
00
00
ENDCHAR

STARTCHAR <unknown>
ENCODING 83
SWIDTH 42 0
DWIDTH 8 0
BBX 8 16 0 -5
BITMAP
00
00
3C
42
42
20
18
04
02
42
42
3C
00
00
00
00
ENDCHAR

STARTCHAR <unknown>
ENCODING 84
SWIDTH 42 0
DWIDTH 8 0
BBX 8 16 0 -5
BITMAP
00
00
FE
10
10
10
10
10
10
10
10
10
00
00
00
00
ENDCHAR

STARTCHAR <unknown>
ENCODING 85
SWIDTH 42 0
DWIDTH 8 0
BBX 8 16 0 -5
BITMAP
00
00
42
42
42
42
42
42
42
42
42
3C
00
00
00
00
ENDCHAR

STARTCHAR <unknown>
ENCODING 86
SWIDTH 42 0
DWIDTH 8 0
BBX 8 16 0 -5
BITMAP
00
00
42
42
42
42
24
24
24
18
18
18
00
00
00
00
ENDCHAR

STARTCHAR <unknown>
ENCODING 87
SWIDTH 42 0
DWIDTH 8 0
BBX 8 16 0 -5
BITMAP
00
00
82
82
82
92
54
54
54
28
28
28
00
00
00
00
ENDCHAR

STARTCHAR <unknown>
ENCODING 88
SWIDTH 42 0
DWIDTH 8 0
BBX 8 16 0 -5
BITMAP
00
00
42
42
24
24
18
18
24
24
42
42
00
00
00
00
ENDCHAR

STARTCHAR <unknown>
ENCODING 89
SWIDTH 42 0
DWIDTH 8 0
BBX 8 16 0 -5
BITMAP
00
00
82
82
44
44
28
10
10
10
10
10
00
00
00
00
ENDCHAR

STARTCHAR <unknown>
ENCODING 90
SWIDTH 42 0
DWIDTH 8 0
BBX 8 16 0 -5
BITMAP
00
00
7E
02
02
04
08
10
20
40
40
7E
00
00
00
00
ENDCHAR

STARTCHAR <unknown>
ENCODING 91
SWIDTH 42 0
DWIDTH 8 0
BBX 8 16 0 -5
BITMAP
00
3C
20
20
20
20
20
20
20
20
20
20
20
3C
00
00
ENDCHAR

STARTCHAR <unknown>
ENCODING 92
SWIDTH 42 0
DWIDTH 8 0
BBX 8 16 0 -5
BITMAP
00
80
40
40
20
20
10
10
08
08
04
04
02
00
00
00
ENDCHAR

STARTCHAR <unknown>
ENCODING 93
SWIDTH 42 0
DWIDTH 8 0
BBX 8 16 0 -5
BITMAP
00
3C
04
04
04
04
04
04
04
04
04
04
04
3C
00
00
ENDCHAR

STARTCHAR <unknown>
ENCODING 94
SWIDTH 42 0
DWIDTH 8 0
BBX 8 16 0 -5
BITMAP
00
00
00
18
24
42
00
00
00
00
00
00
00
00
00
00
ENDCHAR

STARTCHAR <unknown>
ENCODING 95
SWIDTH 42 0
DWIDTH 8 0
BBX 8 16 0 -5
BITMAP
00
00
00
00
00
00
00
00
00
00
00
00
FE
00
00
00
ENDCHAR

STARTCHAR <unknown>
ENCODING 96
SWIDTH 42 0
DWIDTH 8 0
BBX 8 16 0 -5
BITMAP
00
00
20
20
10
08
00
00
00
00
00
00
00
00
00
00
ENDCHAR

STARTCHAR <unknown>
ENCODING 97
SWIDTH 42 0
DWIDTH 8 0
BBX 8 16 0 -5
BITMAP
00
00
00
00
00
38
44
04
3C
44
44
3A
00
00
00
00
ENDCHAR

STARTCHAR <unknown>
ENCODING 98
SWIDTH 42 0
DWIDTH 8 0
BBX 8 16 0 -5
BITMAP
00
00
40
40
40
5C
62
42
42
42
62
5C
00
00
00
00
ENDCHAR

STARTCHAR <unknown>
ENCODING 99
SWIDTH 42 0
DWIDTH 8 0
BBX 8 16 0 -5
BITMAP
00
00
00
00
00
3C
42
40
40
40
42
3C
00
00
00
00
ENDCHAR

STARTCHAR <unknown>
ENCODING 100
SWIDTH 42 0
DWIDTH 8 0
BBX 8 16 0 -5
BITMAP
00
00
02
02
02
3A
46
42
42
42
46
3A
00
00
00
00
ENDCHAR

STARTCHAR <unknown>
ENCODING 101
SWIDTH 42 0
DWIDTH 8 0
BBX 8 16 0 -5
BITMAP
00
00
00
00
00
3C
42
42
7E
40
42
3C
00
00
00
00
ENDCHAR

STARTCHAR <unknown>
ENCODING 102
SWIDTH 42 0
DWIDTH 8 0
BBX 8 16 0 -5
BITMAP
00
00
0C
12
10
10
7C
10
10
10
10
10
00
00
00
00
ENDCHAR

STARTCHAR <unknown>
ENCODING 103
SWIDTH 42 0
DWIDTH 8 0
BBX 8 16 0 -5
BITMAP
00
00
00
00
00
3A
46
42
42
42
46
3A
02
42
3C
00
ENDCHAR

STARTCHAR <unknown>
ENCODING 104
SWIDTH 42 0
DWIDTH 8 0
BBX 8 16 0 -5
BITMAP
00
00
40
40
40
5C
62
42
42
42
42
42
00
00
00
00
ENDCHAR

STARTCHAR <unknown>
ENCODING 105
SWIDTH 42 0
DWIDTH 8 0
BBX 8 16 0 -5
BITMAP
00
00
08
08
00
38
08
08
08
08
08
08
00
00
00
00
ENDCHAR

STARTCHAR <unknown>
ENCODING 106
SWIDTH 42 0
DWIDTH 8 0
BBX 8 16 0 -5
BITMAP
00
00
04
04
00
1C
04
04
04
04
04
04
04
44
38
00
ENDCHAR

STARTCHAR <unknown>
ENCODING 107
SWIDTH 42 0
DWIDTH 8 0
BBX 8 16 0 -5
BITMAP
00
00
40
40
40
44
48
50
70
48
44
42
00
00
00
00
ENDCHAR

STARTCHAR <unknown>
ENCODING 108
SWIDTH 42 0
DWIDTH 8 0
BBX 8 16 0 -5
BITMAP
00
00
38
08
08
08
08
08
08
08
08
08
00
00
00
00
ENDCHAR

STARTCHAR <unknown>
ENCODING 109
SWIDTH 42 0
DWIDTH 8 0
BBX 8 16 0 -5
BITMAP
00
00
00
00
00
EC
92
92
92
92
92
92
00
00
00
00
ENDCHAR

STARTCHAR <unknown>
ENCODING 110
SWIDTH 42 0
DWIDTH 8 0
BBX 8 16 0 -5
BITMAP
00
00
00
00
00
5C
62
42
42
42
42
42
00
00
00
00
ENDCHAR

STARTCHAR <unknown>
ENCODING 111
SWIDTH 42 0
DWIDTH 8 0
BBX 8 16 0 -5
BITMAP
00
00
00
00
00
3C
42
42
42
42
42
3C
00
00
00
00
ENDCHAR

STARTCHAR <unknown>
ENCODING 112
SWIDTH 42 0
DWIDTH 8 0
BBX 8 16 0 -5
BITMAP
00
00
00
00
00
5C
62
42
42
42
62
5C
40
40
40
40
ENDCHAR

STARTCHAR <unknown>
ENCODING 113
SWIDTH 42 0
DWIDTH 8 0
BBX 8 16 0 -5
BITMAP
00
00
00
00
00
3A
46
42
42
42
46
3A
02
02
02
02
ENDCHAR

STARTCHAR <unknown>
ENCODING 114
SWIDTH 42 0
DWIDTH 8 0
BBX 8 16 0 -5
BITMAP
00
00
00
00
00
5C
62
40
40
40
40
40
00
00
00
00
ENDCHAR

STARTCHAR <unknown>
ENCODING 115
SWIDTH 42 0
DWIDTH 8 0
BBX 8 16 0 -5
BITMAP
00
00
00
00
00
3C
42
40
3C
02
42
3C
00
00
00
00
ENDCHAR

STARTCHAR <unknown>
ENCODING 116
SWIDTH 42 0
DWIDTH 8 0
BBX 8 16 0 -5
BITMAP
00
00
10
10
10
7C
10
10
10
10
12
0C
00
00
00
00
ENDCHAR

STARTCHAR <unknown>
ENCODING 117
SWIDTH 42 0
DWIDTH 8 0
BBX 8 16 0 -5
BITMAP
00
00
00
00
00
42
42
42
42
42
46
3A
00
00
00
00
ENDCHAR

STARTCHAR <unknown>
ENCODING 118
SWIDTH 42 0
DWIDTH 8 0
BBX 8 16 0 -5
BITMAP
00
00
00
00
00
42
42
42
24
24
18
18
00
00
00
00
ENDCHAR

STARTCHAR <unknown>
ENCODING 119
SWIDTH 42 0
DWIDTH 8 0
BBX 8 16 0 -5
BITMAP
00
00
00
00
00
82
82
92
92
92
92
6C
00
00
00
00
ENDCHAR

STARTCHAR <unknown>
ENCODING 120
SWIDTH 42 0
DWIDTH 8 0
BBX 8 16 0 -5
BITMAP
00
00
00
00
00
42
42
24
18
24
42
42
00
00
00
00
ENDCHAR

STARTCHAR <unknown>
ENCODING 121
SWIDTH 42 0
DWIDTH 8 0
BBX 8 16 0 -5
BITMAP
00
00
00
00
00
42
42
22
24
14
14
08
08
10
50
20
ENDCHAR

STARTCHAR <unknown>
ENCODING 122
SWIDTH 42 0
DWIDTH 8 0
BBX 8 16 0 -5
BITMAP
00
00
00
00
00
7E
04
08
10
20
40
7E
00
00
00
00
ENDCHAR

STARTCHAR <unknown>
ENCODING 123
SWIDTH 42 0
DWIDTH 8 0
BBX 8 16 0 -5
BITMAP
00
0E
10
10
10
10
10
60
10
10
10
10
10
0E
00
00
ENDCHAR

STARTCHAR <unknown>
ENCODING 124
SWIDTH 42 0
DWIDTH 8 0
BBX 8 16 0 -5
BITMAP
00
10
10
10
10
10
10
10
10
10
10
10
10
10
00
00
ENDCHAR

STARTCHAR <unknown>
ENCODING 125
SWIDTH 42 0
DWIDTH 8 0
BBX 8 16 0 -5
BITMAP
00
70
08
08
08
08
08
06
08
08
08
08
08
70
00
00
ENDCHAR

STARTCHAR <unknown>
ENCODING 126
SWIDTH 42 0
DWIDTH 8 0
BBX 8 16 0 -5
BITMAP
00
00
00
32
5A
4C
00
00
00
00
00
00
00
00
00
00
ENDCHAR

STARTCHAR <unknown>
ENCODING 160
SWIDTH 42 0
DWIDTH 8 0
BBX 8 16 0 -5
BITMAP
00
00
00
00
00
00
00
00
00
00
00
00
00
00
00
00
ENDCHAR

STARTCHAR <unknown>
ENCODING 161
SWIDTH 42 0
DWIDTH 8 0
BBX 8 16 0 -5
BITMAP
00
00
10
00
00
10
10
10
10
10
10
10
00
00
00
00
ENDCHAR

STARTCHAR <unknown>
ENCODING 162
SWIDTH 42 0
DWIDTH 8 0
BBX 8 16 0 -5
BITMAP
00
00
00
08
08
3C
4A
48
48
48
4A
3C
08
08
00
00
ENDCHAR

STARTCHAR <unknown>
ENCODING 163
SWIDTH 42 0
DWIDTH 8 0
BBX 8 16 0 -5
BITMAP
00
00
1C
22
20
20
70
20
20
20
32
4C
00
00
00
00
ENDCHAR

STARTCHAR <unknown>
ENCODING 164
SWIDTH 42 0
DWIDTH 8 0
BBX 8 16 0 -5
BITMAP
00
00
00
00
00
42
3C
24
24
24
3C
42
00
00
00
00
ENDCHAR

STARTCHAR <unknown>
ENCODING 165
SWIDTH 42 0
DWIDTH 8 0
BBX 8 16 0 -5
BITMAP
00
00
44
44
28
28
10
38
38
10
10
10
00
00
00
00
ENDCHAR

STARTCHAR <unknown>
ENCODING 166
SWIDTH 42 0
DWIDTH 8 0
BBX 8 16 0 -5
BITMAP
00
10
10
10
10
10
10
00
10
10
10
10
10
10
00
00
ENDCHAR

STARTCHAR <unknown>
ENCODING 167
SWIDTH 42 0
DWIDTH 8 0
BBX 8 16 0 -5
BITMAP
00
00
10
28
60
30
48
24
18
0C
28
10
00
00
00
00
ENDCHAR

STARTCHAR <unknown>
ENCODING 168
SWIDTH 42 0
DWIDTH 8 0
BBX 8 16 0 -5
BITMAP
00
44
00
00
00
00
00
00
00
00
00
00
00
00
00
00
ENDCHAR

STARTCHAR <unknown>
ENCODING 169
SWIDTH 42 0
DWIDTH 8 0
BBX 8 16 0 -5
BITMAP
00
3C
42
99
A5
A1
A5
99
42
3C
00
00
00
00
00
00
ENDCHAR

STARTCHAR <unknown>
ENCODING 170
SWIDTH 42 0
DWIDTH 8 0
BBX 8 16 0 -5
BITMAP
00
0C
12
0E
12
0D
1F
00
00
00
00
00
00
00
00
00
ENDCHAR

STARTCHAR <unknown>
ENCODING 171
SWIDTH 42 0
DWIDTH 8 0
BBX 8 16 0 -5
BITMAP
00
00
00
00
00
28
50
A0
50
28
00
00
00
00
00
00
ENDCHAR

STARTCHAR <unknown>
ENCODING 172
SWIDTH 42 0
DWIDTH 8 0
BBX 8 16 0 -5
BITMAP
00
00
00
00
00
00
FC
04
04
00
00
00
00
00
00
00
ENDCHAR

STARTCHAR <unknown>
ENCODING 173
SWIDTH 42 0
DWIDTH 8 0
BBX 8 16 0 -5
BITMAP
00
00
00
00
00
00
00
7E
00
00
00
00
00
00
00
00
ENDCHAR

STARTCHAR <unknown>
ENCODING 174
SWIDTH 42 0
DWIDTH 8 0
BBX 8 16 0 -5
BITMAP
00
3C
42
B9
A5
B9
A5
A5
42
3C
00
00
00
00
00
00
ENDCHAR

STARTCHAR <unknown>
ENCODING 175
SWIDTH 42 0
DWIDTH 8 0
BBX 8 16 0 -5
BITMAP
00
00
3C
00
00
00
00
00
00
00
00
00
00
00
00
00
ENDCHAR

STARTCHAR <unknown>
ENCODING 176
SWIDTH 42 0
DWIDTH 8 0
BBX 8 16 0 -5
BITMAP
00
00
0C
12
12
0C
00
00
00
00
00
00
00
00
00
00
ENDCHAR

STARTCHAR <unknown>
ENCODING 177
SWIDTH 42 0
DWIDTH 8 0
BBX 8 16 0 -5
BITMAP
00
00
00
10
10
10
FE
10
10
10
00
FE
00
00
00
00
ENDCHAR

STARTCHAR <unknown>
ENCODING 178
SWIDTH 42 0
DWIDTH 8 0
BBX 8 16 0 -5
BITMAP
00
18
24
08
10
3C
00
00
00
00
00
00
00
00
00
00
ENDCHAR

STARTCHAR <unknown>
ENCODING 179
SWIDTH 42 0
DWIDTH 8 0
BBX 8 16 0 -5
BITMAP
00
18
24
08
24
18
00
00
00
00
00
00
00
00
00
00
ENDCHAR

STARTCHAR <unknown>
ENCODING 180
SWIDTH 42 0
DWIDTH 8 0
BBX 8 16 0 -5
BITMAP
00
00
04
08
10
20
00
00
00
00
00
00
00
00
00
00
ENDCHAR

STARTCHAR <unknown>
ENCODING 181
SWIDTH 42 0
DWIDTH 8 0
BBX 8 16 0 -5
BITMAP
00
00
00
00
00
00
00
24
24
24
24
3A
22
00
00
00
ENDCHAR

STARTCHAR <unknown>
ENCODING 182
SWIDTH 42 0
DWIDTH 8 0
BBX 8 16 0 -5
BITMAP
00
00
3C
74
74
74
34
14
14
14
14
14
00
00
00
00
ENDCHAR

STARTCHAR <unknown>
ENCODING 183
SWIDTH 42 0
DWIDTH 8 0
BBX 8 16 0 -5
BITMAP
00
00
00
00
00
00
00
00
10
00
00
00
00
00
00
00
ENDCHAR

STARTCHAR <unknown>
ENCODING 184
SWIDTH 42 0
DWIDTH 8 0
BBX 8 16 0 -5
BITMAP
00
00
00
00
00
00
00
00
00
00
00
00
08
28
10
00
ENDCHAR

STARTCHAR <unknown>
ENCODING 185
SWIDTH 42 0
DWIDTH 8 0
BBX 8 16 0 -5
BITMAP
00
08
18
08
08
1C
00
00
00
00
00
00
00
00
00
00
ENDCHAR

STARTCHAR <unknown>
ENCODING 186
SWIDTH 42 0
DWIDTH 8 0
BBX 8 16 0 -5
BITMAP
00
0C
12
12
0C
00
1E
00
00
00
00
00
00
00
00
00
ENDCHAR

STARTCHAR <unknown>
ENCODING 187
SWIDTH 42 0
DWIDTH 8 0
BBX 8 16 0 -5
BITMAP
00
00
00
00
00
50
28
14
28
50
00
00
00
00
00
00
ENDCHAR

STARTCHAR <unknown>
ENCODING 188
SWIDTH 42 0
DWIDTH 8 0
BBX 8 16 0 -5
BITMAP
00
40
C0
42
44
E8
14
2C
54
9E
04
04
00
00
00
00
ENDCHAR

STARTCHAR <unknown>
ENCODING 189
SWIDTH 42 0
DWIDTH 8 0
BBX 8 16 0 -5
BITMAP
00
40
C0
42
44
E8
10
2C
52
84
08
1E
00
00
00
00
ENDCHAR

STARTCHAR <unknown>
ENCODING 190
SWIDTH 42 0
DWIDTH 8 0
BBX 8 16 0 -5
BITMAP
00
60
90
22
94
68
14
2C
54
9E
04
04
00
00
00
00
ENDCHAR

STARTCHAR <unknown>
ENCODING 191
SWIDTH 42 0
DWIDTH 8 0
BBX 8 16 0 -5
BITMAP
00
00
10
00
00
10
10
20
40
42
42
3C
00
00
00
00
ENDCHAR

STARTCHAR <unknown>
ENCODING 192
SWIDTH 42 0
DWIDTH 8 0
BBX 8 16 0 -5
BITMAP
20
10
08
00
18
24
24
24
42
7E
42
42
00
00
00
00
ENDCHAR

STARTCHAR <unknown>
ENCODING 193
SWIDTH 42 0
DWIDTH 8 0
BBX 8 16 0 -5
BITMAP
04
08
10
00
18
24
24
24
42
7E
42
42
00
00
00
00
ENDCHAR

STARTCHAR <unknown>
ENCODING 194
SWIDTH 42 0
DWIDTH 8 0
BBX 8 16 0 -5
BITMAP
00
18
24
00
18
24
24
24
42
7E
42
42
00
00
00
00
ENDCHAR

STARTCHAR <unknown>
ENCODING 195
SWIDTH 42 0
DWIDTH 8 0
BBX 8 16 0 -5
BITMAP
00
32
4C
00
18
24
24
24
42
7E
42
42
00
00
00
00
ENDCHAR

STARTCHAR <unknown>
ENCODING 196
SWIDTH 42 0
DWIDTH 8 0
BBX 8 16 0 -5
BITMAP
24
24
00
18
18
24
24
24
42
7E
42
42
00
00
00
00
ENDCHAR

STARTCHAR <unknown>
ENCODING 197
SWIDTH 42 0
DWIDTH 8 0
BBX 8 16 0 -5
BITMAP
18
24
18
00
18
24
24
24
42
7E
42
42
00
00
00
00
ENDCHAR

STARTCHAR <unknown>
ENCODING 198
SWIDTH 42 0
DWIDTH 8 0
BBX 8 16 0 -5
BITMAP
00
00
1F
28
28
28
7E
48
48
88
88
8F
00
00
00
00
ENDCHAR

STARTCHAR <unknown>
ENCODING 199
SWIDTH 42 0
DWIDTH 8 0
BBX 8 16 0 -5
BITMAP
00
00
3C
42
42
40
40
40
40
42
42
3C
08
24
18
00
ENDCHAR

STARTCHAR <unknown>
ENCODING 200
SWIDTH 42 0
DWIDTH 8 0
BBX 8 16 0 -5
BITMAP
20
10
08
7E
40
40
40
7C
40
40
40
7E
00
00
00
00
ENDCHAR

STARTCHAR <unknown>
ENCODING 201
SWIDTH 42 0
DWIDTH 8 0
BBX 8 16 0 -5
BITMAP
04
08
10
7E
40
40
40
7C
40
40
40
7E
00
00
00
00
ENDCHAR

STARTCHAR <unknown>
ENCODING 202
SWIDTH 42 0
DWIDTH 8 0
BBX 8 16 0 -5
BITMAP
18
24
00
7E
40
40
40
7C
40
40
40
7E
00
00
00
00
ENDCHAR

STARTCHAR <unknown>
ENCODING 203
SWIDTH 42 0
DWIDTH 8 0
BBX 8 16 0 -5
BITMAP
24
24
00
7E
40
40
40
7C
40
40
40
7E
00
00
00
00
ENDCHAR

STARTCHAR <unknown>
ENCODING 204
SWIDTH 42 0
DWIDTH 8 0
BBX 8 16 0 -5
BITMAP
20
10
08
7C
10
10
10
10
10
10
10
7C
00
00
00
00
ENDCHAR

STARTCHAR <unknown>
ENCODING 205
SWIDTH 42 0
DWIDTH 8 0
BBX 8 16 0 -5
BITMAP
08
10
20
7C
10
10
10
10
10
10
10
7C
00
00
00
00
ENDCHAR

STARTCHAR <unknown>
ENCODING 206
SWIDTH 42 0
DWIDTH 8 0
BBX 8 16 0 -5
BITMAP
18
24
00
7C
10
10
10
10
10
10
10
7C
00
00
00
00
ENDCHAR

STARTCHAR <unknown>
ENCODING 207
SWIDTH 42 0
DWIDTH 8 0
BBX 8 16 0 -5
BITMAP
44
44
00
7C
10
10
10
10
10
10
10
7C
00
00
00
00
ENDCHAR

STARTCHAR <unknown>
ENCODING 208
SWIDTH 42 0
DWIDTH 8 0
BBX 8 16 0 -5
BITMAP
00
00
38
24
22
22
72
22
22
22
24
38
00
00
00
00
ENDCHAR

STARTCHAR <unknown>
ENCODING 209
SWIDTH 42 0
DWIDTH 8 0
BBX 8 16 0 -5
BITMAP
32
4C
00
42
62
72
52
4A
4A
46
46
42
00
00
00
00
ENDCHAR

STARTCHAR <unknown>
ENCODING 210
SWIDTH 42 0
DWIDTH 8 0
BBX 8 16 0 -5
BITMAP
20
10
08
3C
42
42
42
42
42
42
42
3C
00
00
00
00
ENDCHAR

STARTCHAR <unknown>
ENCODING 211
SWIDTH 42 0
DWIDTH 8 0
BBX 8 16 0 -5
BITMAP
04
08
10
3C
42
42
42
42
42
42
42
3C
00
00
00
00
ENDCHAR

STARTCHAR <unknown>
ENCODING 212
SWIDTH 42 0
DWIDTH 8 0
BBX 8 16 0 -5
BITMAP
18
24
00
3C
42
42
42
42
42
42
42
3C
00
00
00
00
ENDCHAR

STARTCHAR <unknown>
ENCODING 213
SWIDTH 42 0
DWIDTH 8 0
BBX 8 16 0 -5
BITMAP
32
4C
00
3C
42
42
42
42
42
42
42
3C
00
00
00
00
ENDCHAR

STARTCHAR <unknown>
ENCODING 214
SWIDTH 42 0
DWIDTH 8 0
BBX 8 16 0 -5
BITMAP
24
24
00
3C
42
42
42
42
42
42
42
3C
00
00
00
00
ENDCHAR

STARTCHAR <unknown>
ENCODING 215
SWIDTH 42 0
DWIDTH 8 0
BBX 8 16 0 -5
BITMAP
00
00
00
00
00
44
28
10
28
44
00
00
00
00
00
00
ENDCHAR

STARTCHAR <unknown>
ENCODING 216
SWIDTH 42 0
DWIDTH 8 0
BBX 8 16 0 -5
BITMAP
00
02
3E
46
46
4A
4A
52
52
62
62
7C
40
00
00
00
ENDCHAR

STARTCHAR <unknown>
ENCODING 217
SWIDTH 42 0
DWIDTH 8 0
BBX 8 16 0 -5
BITMAP
20
10
08
42
42
42
42
42
42
42
42
3C
00
00
00
00
ENDCHAR

STARTCHAR <unknown>
ENCODING 218
SWIDTH 42 0
DWIDTH 8 0
BBX 8 16 0 -5
BITMAP
04
08
10
42
42
42
42
42
42
42
42
3C
00
00
00
00
ENDCHAR

STARTCHAR <unknown>
ENCODING 219
SWIDTH 42 0
DWIDTH 8 0
BBX 8 16 0 -5
BITMAP
18
24
00
42
42
42
42
42
42
42
42
3C
00
00
00
00
ENDCHAR

STARTCHAR <unknown>
ENCODING 220
SWIDTH 42 0
DWIDTH 8 0
BBX 8 16 0 -5
BITMAP
24
24
00
42
42
42
42
42
42
42
42
3C
00
00
00
00
ENDCHAR

STARTCHAR <unknown>
ENCODING 221
SWIDTH 42 0
DWIDTH 8 0
BBX 8 16 0 -5
BITMAP
04
08
10
82
82
44
44
28
10
10
10
10
00
00
00
00
ENDCHAR

STARTCHAR <unknown>
ENCODING 222
SWIDTH 42 0
DWIDTH 8 0
BBX 8 16 0 -5
BITMAP
70
20
3E
21
21
21
21
3E
20
20
20
70
00
00
00
00
ENDCHAR

STARTCHAR <unknown>
ENCODING 223
SWIDTH 42 0
DWIDTH 8 0
BBX 8 16 0 -5
BITMAP
00
00
18
24
44
44
48
44
42
42
42
4C
00
00
00
00
ENDCHAR

STARTCHAR <unknown>
ENCODING 224
SWIDTH 42 0
DWIDTH 8 0
BBX 8 16 0 -5
BITMAP
00
20
10
08
00
38
44
04
3C
44
44
3A
00
00
00
00
ENDCHAR

STARTCHAR <unknown>
ENCODING 225
SWIDTH 42 0
DWIDTH 8 0
BBX 8 16 0 -5
BITMAP
00
08
10
20
00
38
44
04
3C
44
44
3A
00
00
00
00
ENDCHAR

STARTCHAR <unknown>
ENCODING 226
SWIDTH 42 0
DWIDTH 8 0
BBX 8 16 0 -5
BITMAP
00
10
28
44
00
38
44
04
3C
44
44
3A
00
00
00
00
ENDCHAR

STARTCHAR <unknown>
ENCODING 227
SWIDTH 42 0
DWIDTH 8 0
BBX 8 16 0 -5
BITMAP
00
00
32
4C
00
38
44
04
3C
44
44
3A
00
00
00
00
ENDCHAR

STARTCHAR <unknown>
ENCODING 228
SWIDTH 42 0
DWIDTH 8 0
BBX 8 16 0 -5
BITMAP
00
00
24
24
00
38
44
04
3C
44
44
3A
00
00
00
00
ENDCHAR

STARTCHAR <unknown>
ENCODING 229
SWIDTH 42 0
DWIDTH 8 0
BBX 8 16 0 -5
BITMAP
00
18
24
18
00
38
44
04
3C
44
44
3A
00
00
00
00
ENDCHAR

STARTCHAR <unknown>
ENCODING 230
SWIDTH 42 0
DWIDTH 8 0
BBX 8 16 0 -5
BITMAP
00
00
00
00
00
6C
92
12
7E
90
92
6C
00
00
00
00
ENDCHAR

STARTCHAR <unknown>
ENCODING 231
SWIDTH 42 0
DWIDTH 8 0
BBX 8 16 0 -5
BITMAP
00
00
00
00
00
3C
42
40
40
40
42
3C
08
24
18
00
ENDCHAR

STARTCHAR <unknown>
ENCODING 232
SWIDTH 42 0
DWIDTH 8 0
BBX 8 16 0 -5
BITMAP
00
20
10
08
00
3C
42
42
7E
40
42
3C
00
00
00
00
ENDCHAR

STARTCHAR <unknown>
ENCODING 233
SWIDTH 42 0
DWIDTH 8 0
BBX 8 16 0 -5
BITMAP
00
04
08
10
00
3C
42
42
7E
40
42
3C
00
00
00
00
ENDCHAR

STARTCHAR <unknown>
ENCODING 234
SWIDTH 42 0
DWIDTH 8 0
BBX 8 16 0 -5
BITMAP
00
08
14
22
00
3C
42
42
7E
40
42
3C
00
00
00
00
ENDCHAR

STARTCHAR <unknown>
ENCODING 235
SWIDTH 42 0
DWIDTH 8 0
BBX 8 16 0 -5
BITMAP
00
00
24
24
00
3C
42
42
7E
40
42
3C
00
00
00
00
ENDCHAR

STARTCHAR <unknown>
ENCODING 236
SWIDTH 42 0
DWIDTH 8 0
BBX 8 16 0 -5
BITMAP
00
20
10
08
00
38
08
08
08
08
08
08
00
00
00
00
ENDCHAR

STARTCHAR <unknown>
ENCODING 237
SWIDTH 42 0
DWIDTH 8 0
BBX 8 16 0 -5
BITMAP
00
04
08
10
00
38
08
08
08
08
08
08
00
00
00
00
ENDCHAR

STARTCHAR <unknown>
ENCODING 238
SWIDTH 42 0
DWIDTH 8 0
BBX 8 16 0 -5
BITMAP
00
08
14
22
00
38
08
08
08
08
08
08
00
00
00
00
ENDCHAR

STARTCHAR <unknown>
ENCODING 239
SWIDTH 42 0
DWIDTH 8 0
BBX 8 16 0 -5
BITMAP
00
00
24
24
00
38
08
08
08
08
08
08
00
00
00
00
ENDCHAR

STARTCHAR <unknown>
ENCODING 240
SWIDTH 42 0
DWIDTH 8 0
BBX 8 16 0 -5
BITMAP
00
00
28
10
28
04
3E
42
42
42
42
3C
00
00
00
00
ENDCHAR

STARTCHAR <unknown>
ENCODING 241
SWIDTH 42 0
DWIDTH 8 0
BBX 8 16 0 -5
BITMAP
00
00
32
4C
00
5C
62
42
42
42
42
42
00
00
00
00
ENDCHAR

STARTCHAR <unknown>
ENCODING 242
SWIDTH 42 0
DWIDTH 8 0
BBX 8 16 0 -5
BITMAP
00
20
10
08
00
3C
42
42
42
42
42
3C
00
00
00
00
ENDCHAR

STARTCHAR <unknown>
ENCODING 243
SWIDTH 42 0
DWIDTH 8 0
BBX 8 16 0 -5
BITMAP
00
04
08
10
00
3C
42
42
42
42
42
3C
00
00
00
00
ENDCHAR

STARTCHAR <unknown>
ENCODING 244
SWIDTH 42 0
DWIDTH 8 0
BBX 8 16 0 -5
BITMAP
00
08
14
22
00
3C
42
42
42
42
42
3C
00
00
00
00
ENDCHAR

STARTCHAR <unknown>
ENCODING 245
SWIDTH 42 0
DWIDTH 8 0
BBX 8 16 0 -5
BITMAP
00
00
32
4C
00
3C
42
42
42
42
42
3C
00
00
00
00
ENDCHAR

STARTCHAR <unknown>
ENCODING 246
SWIDTH 42 0
DWIDTH 8 0
BBX 8 16 0 -5
BITMAP
00
00
24
24
00
3C
42
42
42
42
42
3C
00
00
00
00
ENDCHAR

STARTCHAR <unknown>
ENCODING 247
SWIDTH 42 0
DWIDTH 8 0
BBX 8 16 0 -5
BITMAP
00
00
00
00
00
10
00
7C
00
10
00
00
00
00
00
00
ENDCHAR

STARTCHAR <unknown>
ENCODING 248
SWIDTH 42 0
DWIDTH 8 0
BBX 8 16 0 -5
BITMAP
00
00
00
00
02
3C
46
4A
5A
52
62
3C
40
00
00
00
ENDCHAR

STARTCHAR <unknown>
ENCODING 249
SWIDTH 42 0
DWIDTH 8 0
BBX 8 16 0 -5
BITMAP
00
20
10
08
00
42
42
42
42
42
46
3A
00
00
00
00
ENDCHAR

STARTCHAR <unknown>
ENCODING 250
SWIDTH 42 0
DWIDTH 8 0
BBX 8 16 0 -5
BITMAP
00
04
08
10
00
42
42
42
42
42
46
3A
00
00
00
00
ENDCHAR

STARTCHAR <unknown>
ENCODING 251
SWIDTH 42 0
DWIDTH 8 0
BBX 8 16 0 -5
BITMAP
00
08
14
22
00
42
42
42
42
42
46
3A
00
00
00
00
ENDCHAR

STARTCHAR <unknown>
ENCODING 252
SWIDTH 42 0
DWIDTH 8 0
BBX 8 16 0 -5
BITMAP
00
00
24
24
00
42
42
42
42
42
46
3A
00
00
00
00
ENDCHAR

STARTCHAR <unknown>
ENCODING 253
SWIDTH 42 0
DWIDTH 8 0
BBX 8 16 0 -5
BITMAP
00
04
08
10
00
42
42
22
24
14
14
08
08
10
50
20
ENDCHAR

STARTCHAR <unknown>
ENCODING 254
SWIDTH 42 0
DWIDTH 8 0
BBX 8 16 0 -5
BITMAP
00
00
60
20
20
2C
32
21
21
21
32
2C
20
20
20
70
ENDCHAR

STARTCHAR <unknown>
ENCODING 255
SWIDTH 42 0
DWIDTH 8 0
BBX 8 16 0 -5
BITMAP
00
00
24
24
00
42
42
22
24
14
14
08
08
10
50
20
ENDCHAR
ENDFONT
